#!OML:ASF \\Waltz\H\Terrain\Patient Classification 1\Animal2\Wednesday\Animal2.ASF
:FULLY-SPECIFIED
:DEGREES
2658
root 14.0646 18.9812 -11.3904 901.962 -54.8532 -536.507
lowerback 2.18828 -3.39461 3.50312
upperback -5.94979 -4.46885 1.08724
thorax -7.63169 -2.44971 -0.403855
lowerneck -2.00873 -0.771708 11.4075
upperneck 4.60548 -0.966863 -14.5937
head 1.53548 -0.674429 -6.35301
rclavicle -8.80865e-014 -2.72335e-014
rhumerus -77.6504 47.5852 -118.501
rradius 58.5401
rwrist 30.6946
rhand 15.6888 33.5439
rfingers 7.12502
rthumb 40.4996 8.47057
lclavicle -8.80865e-014 -2.72335e-014
lhumerus -82.5244 -49.354 121.156
lradius 70.7689
lwrist -10.4657
lhand -4.54567 12.5194
lfingers 7.12502
lthumb 21.2299 41.3768
rfemur -15.8137 -10.5258 24.3255
rtibia 27.5531
rfoot -1.14589 -3.01823
rtoes 24.8453
lfemur -14.3358 18.9434 -17.7128
ltibia 38.6643
lfoot -11.0368 18.7237
ltoes 20.0424
2659
root 14.0533 19.0687 -11.3664 901.712 -53.0072 -536.235
lowerback 2.00384 -3.29812 3.8573
upperback -5.75781 -4.32059 1.21061
thorax -7.33088 -2.38803 -0.506681
lowerneck -2.17257 -0.578263 11.6398
upperneck 4.24448 -0.750378 -14.8282
head 1.48572 -0.569464 -6.46269
rclavicle -1.2921e-014 4.17448e-015
rhumerus -77.6715 48.5401 -118.831
rradius 58.5976
rwrist 30.9124
rhand 15.3403 33.223
rfingers 7.12502
rthumb 40.1719 8.04906
lclavicle -1.2921e-014 4.17448e-015
lhumerus -82.6953 -49.3694 120.931
lradius 71.0037
lwrist -10.1326
lhand -4.51412 12.4816
lfingers 7.12502
lthumb 21.2602 41.3356
rfemur -15.727 -11.5849 24.7838
rtibia 27.6286
rfoot -2.59853 -6.52041
rtoes 27.1714
lfemur -14.1539 17.4247 -17.5569
ltibia 38.0186
lfoot -10.2967 17.0667
ltoes 16.3591
2660
root 14.0443 19.1349 -11.343 901.489 -51.2032 -535.986
lowerback 1.9674 -3.24316 4.30403
upperback -5.68997 -4.2233 1.29991
thorax -7.26219 -2.36228 -0.673937
lowerneck -2.05503 -0.356586 11.7491
upperneck 3.80649 -0.478237 -14.937
head 1.37639 -0.425352 -6.50761
rclavicle 9.96905e-014 1.49089e-014
rhumerus -77.7988 49.3077 -119.319
rradius 58.5513
rwrist 31.3754
rhand 14.9437 32.7499
rfingers 7.12502
rthumb 39.7987 7.46346
lclavicle 9.96905e-014 1.49089e-014
lhumerus -83.2959 -49.1977 120.85
lradius 71.3263
lwrist -10.0222
lhand -4.72113 12.3444
lfingers 7.12502
lthumb 21.0613 41.2207
rfemur -15.6726 -12.4592 25.2063
rtibia 27.9315
rfoot -4.26232 -9.70479
rtoes 29.1996
lfemur -14.0545 16.0073 -17.3913
ltibia 37.3283
lfoot -10.1823 15.4885
ltoes 16.2596
2661
root 14.0356 19.1958 -11.3212 901.402 -49.3006 -535.853
lowerback 2.00934 -3.11116 4.71591
upperback -5.73841 -4.02595 1.34391
thorax -7.35815 -2.29229 -0.867318
lowerneck -1.8182 -0.181524 11.8729
upperneck 3.48559 -0.249932 -15.0125
head 1.27531 -0.299402 -6.54611
rclavicle -8.34647e-014 -1.37161e-014
rhumerus -78.066 49.8737 -119.848
rradius 58.5977
rwrist 31.561
rhand 14.8587 32.6909
rfingers 7.12502
rthumb 39.7186 7.3806
lclavicle -8.34647e-014 -1.37161e-014
lhumerus -84.3871 -48.9465 121.008
lradius 71.702
lwrist -10.2137
lhand -4.87206 12.246
lfingers 7.12502
lthumb 20.9163 41.1384
rfemur -15.63 -12.7288 25.4494
rtibia 28.4041
rfoot -7.0988 -12.2118
rtoes 36.1289
lfemur -13.9446 14.7708 -17.3164
ltibia 36.53
lfoot -10.266 14.1968
ltoes 17.2239
2662
root 14.018 19.2513 -11.3008 901.694 -47.3651 -536.145
lowerback 1.88738 -2.88528 4.83442
upperback -5.76824 -3.73217 1.30209
thorax -7.31392 -2.15891 -1.00943
lowerneck -1.76528 -0.0456178 12.0223
upperneck 3.474 -0.0651495 -15.1011
head 1.28857 -0.205941 -6.59776
rclavicle 2.18912e-014 -1.98785e-015
rhumerus -78.1454 50.4328 -120.156
rradius 58.7275
rwrist 31.3733
rhand 14.8376 32.7998
rfingers 7.12502
rthumb 39.6987 7.48356
lclavicle 2.18912e-014 -1.98785e-015
lhumerus -85.5677 -48.9768 121.545
lradius 71.7865
lwrist -10.1224
lhand -5.31472 12.0926
lfingers 7.12502
lthumb 20.491 41.0313
rfemur -15.6741 -13.2677 25.351
rtibia 29.0142
rfoot -9.28086 -13.5717
rtoes 41.3207
lfemur -13.7928 13.5086 -17.6578
ltibia 35.608
lfoot -10.3164 13.5586
ltoes 16.6595
2663
root 13.9835 19.3031 -11.2933 902.126 -45.5548 -536.746
lowerback 1.4475 -2.80105 4.55128
upperback -5.68335 -3.6635 1.34717
thorax -6.93859 -2.10419 -0.842369
lowerneck -1.46684 0.187398 12.0551
upperneck 3.34692 0.263037 -15.322
head 1.24797 -0.0383358 -6.6682
rclavicle -9.32797e-014 1.27222e-014
rhumerus -78.3302 51.6373 -120.654
rradius 58.8131
rwrist 30.862
rhand 15.1552 32.6629
rfingers 7.12502
rthumb 39.9977 7.43619
lclavicle -9.32797e-014 1.27222e-014
lhumerus -86.1302 -48.7865 121.977
lradius 71.4533
lwrist -9.54685
lhand -5.52639 12.218
lfingers 7.12502
lthumb 20.2876 41.1785
rfemur -15.6198 -14.4472 24.89
rtibia 29.7381
rfoot -10.2395 -14.2064
rtoes 44.3409
lfemur -13.4367 12.5188 -18.2525
ltibia 34.5898
lfoot -9.95272 13.1207
ltoes 11.8242
2664
root 13.9668 19.3438 -11.2792 901.938 -43.3776 -536.804
lowerback 1.23926 -2.8589 4.16653
upperback -5.35487 -3.74926 1.90686
thorax -6.40421 -2.0991 -0.0699112
lowerneck -1.12322 0.666503 11.6399
upperneck 2.82111 0.888282 -15.7285
head 1.12807 0.268935 -6.71449
rclavicle 5.08889e-014 -1.19271e-014
rhumerus -78.6355 53.7571 -121.136
rradius 58.8024
rwrist 30.4798
rhand 15.3985 32.5253
rfingers 7.12502
rthumb 40.2266 7.36804
lclavicle 5.08889e-014 -1.19271e-014
lhumerus -85.0965 -47.83 121.375
lradius 70.8811
lwrist -8.99664
lhand -5.06605 12.4747
lfingers 7.12502
lthumb 20.7299 41.3875
rfemur -15.4628 -14.765 24.7937
rtibia 30.5196
rfoot -10.8698 -15.2532
rtoes 44.8664
lfemur -12.9675 11.9281 -18.3186
ltibia 33.6383
lfoot -9.42896 12.9269
ltoes 5.60465
2665
root 13.9467 19.3615 -11.2669 901.737 -41.1746 -536.722
lowerback 1.46636 -2.65158 4.55382
upperback -5.37543 -3.44291 2.0111
thorax -6.56514 -1.96976 -0.183682
lowerneck -1.11595 0.937229 11.4052
upperneck 2.91011 1.25872 -15.8328
head 1.20453 0.440856 -6.7019
rclavicle 5.57591e-014 1.78906e-014
rhumerus -78.4874 54.219 -121.201
rradius 58.6442
rwrist 30.8445
rhand 15.1634 32.6506
rfingers 7.12502
rthumb 40.0055 7.42622
lclavicle 5.57591e-014 1.78906e-014
lhumerus -85.6428 -47.4662 121.708
lradius 70.3379
lwrist -8.51325
lhand -5.14185 12.5522
lfingers 7.12502
lthumb 20.6571 41.4729
rfemur -15.4149 -15.314 24.8993
rtibia 31.3426
rfoot -9.96238 -16.2519
rtoes 41.3665
lfemur -12.737 11.4468 -18.277
ltibia 32.7886
lfoot -8.88188 13.1162
ltoes 0.517369
2666
root 13.9291 19.3641 -11.2528 901.852 -39.0623 -537.058
lowerback 1.51658 -2.31017 4.51726
upperback -5.19381 -2.98285 1.9901
thorax -6.37959 -1.73326 -0.2268
lowerneck -1.60465 1.17784 11.4756
upperneck 3.04413 1.55376 -16.1321
head 1.37081 0.556284 -6.80474
rclavicle -7.55382e-015 3.18055e-015
rhumerus -77.3133 54.5508 -120.275
rradius 58.5001
rwrist 31.0041
rhand 14.9531 32.795
rfingers 7.12502
rthumb 39.8075 7.51114
lclavicle -7.55382e-015 3.18055e-015
lhumerus -86.3876 -47.9424 122.551
lradius 69.5111
lwrist -8.17448
lhand -6.28784 12.6737
lfingers 7.12502
lthumb 19.5556 41.7102
rfemur -15.3384 -15.7978 24.6344
rtibia 32.1789
rfoot -8.72435 -16.5904
rtoes 39.6306
lfemur -12.6801 11.0409 -18.5841
ltibia 32.1981
lfoot -8.72257 13.3383
ltoes -2.35376
